# xmcd
#
# Track frame offsets: 
#        150
#        17913
#        36607
#        47492
#        69846
#        91049
#        109614
#        121285
#        143052
#        160051
#        178887
#        207630
#        215880
#
# Disc length: 3139 seconds
#
# Revision: 1
# Processed by: cddbd v1.5.2PL0 Copyright (c) Steve Scherf et al.
# Submitted via: ExactAudioCopy v0.99pb4
#
DISCID=bb0c410d
DTITLE=Friend 'N' Fellow - Discovered
DYEAR=2010
DGENRE=Acoustic
TTITLE0=Me and Mrs Jones (Billy Paul)
TTITLE1=Clocks (Coldplay)
TTITLE2=Crazy Little Thing Called Love (Queen)
TTITLE3=Both Sides Now (Joni Mitchell)
TTITLE4=Moondance (Van Morrison)
TTITLE5=Walk On The Wild Side (Lou Reed)
TTITLE6=Ring Of Fire (Johnny Cash)
TTITLE7=A Case Of You (Joni Mitchell)
TTITLE8=Shout (Tears for Fears)
TTITLE9=Here Comes The Rain Again (Eurythmics)
TTITLE10=Have A Talk With God (Stevie Wonder)
TTITLE11=If You Had My Love (Jennifer Lopez)
TTITLE12=Throw It Away (Abbey Lincoln)
EXTD=
EXTT0=
EXTT1=
EXTT2=
EXTT3=
EXTT4=
EXTT5=
EXTT6=
EXTT7=
EXTT8=
EXTT9=
EXTT10=
EXTT11=
EXTT12=
PLAYORDER=
